<svg xmlns="http://www.w3.org/2000/svg" width="428" height="428" viewBox="0 0 428 428">
  <defs>
    <style>
      .cls-1 {
        fill-rule: evenodd;
      }
    </style>
  </defs>
  <path id="Forma_2" data-name="Forma 2" class="cls-1" d="M403.432,298.959a200.963,200.963,0,0,1-93.163,92.76c-23.946,11.5-39.316,14.364-46.1,15.842-18.144,3.955-32.267,4.075-40.047,4.354a192.543,192.543,0,0,1-22.747-.846,171.857,171.857,0,0,1-30.731-4.959,119.365,119.365,0,0,1-26.255-7.619l-3.267-1.33s0.02-.006-6.9,4.233c-1.176.78-.985,1.263-1.209,3.265,0.011,5.5-1.034,6.171-1.452,6.772a8.009,8.009,0,0,1-5.808-3.265,130.872,130.872,0,0,0-8.832-9.675,12.84,12.84,0,0,0-8.349-5.805c-3.394-.422-3.629-1.33-3.629-1.33l-3.146-3.628-5.324.483s-2.174-.992-3.63-1.693c-5.824-2.346-7.581-6.544-7.5-6.893-3.034-.306-4.664-2.072-7.26-4.717-3.46-3.423-4.114-3.023-4.114-3.023s-2.373,1.173-2.9,1.33a1.719,1.719,0,0,1-1.573-1.088s-0.231-.669-0.847-2.3a11.642,11.642,0,0,0-3.872-5.926c-4.4-3.276-10.359-11.817-11.615-13.545-1.13-1.6-3.936-6.119-6.171-9.433-1.032-2.808-3.78-5.23-4.719-6.047a1.4,1.4,0,0,0-.847-1.331s-0.051.06-.847,1.452c-5.228-3.988-7.771-7.131-11.736-11.731-4.662-5.348-9-12.665-12.288-18.848Q15.343,301.834,14,299a87.67,87.67,0,0,1-.879-76.325,7.657,7.657,0,0,0,.842.456L14,221V221l0.085-5s0.272-7.472.242-14.512c-0.909-10.68,1.411-20.075,3.267-30.235a217.792,217.792,0,0,1,8.953-31.685c11.6-31.688,27.472-50.255,28.8-51.883a201.865,201.865,0,0,1,30.248-31.2c6.738-6.314,21.154-15.8,22.021-16.568,1.277-.764,1.33-1.088,1.33-1.088s0.461-.761.726-1.33a26.03,26.03,0,0,0-4.476-4.6c-7.6-6.708-21.78-7.953-25.045-8.345-3.437-.134-2.821-0.912-3.388-1.451-0.981-1.229-.263-2.637.121-3.386a22.78,22.78,0,0,1,3.388-.726s17.407-.121,44.766-0.121c23.614,1.413,28.666-.925,34.846-2.54,20.186-6.662,31.229-7.173,41.015-8.224C277.881,1.854,327.677,37.095,337.25,43.538c75.69,51.5,84.384,131.959,85.9,147.544C427.057,255.619,409.059,287,403.432,298.959Zm-380.516-.242a0.914,0.914,0,0,0-.968-0.725,0.809,0.809,0,0,0,.121,1.088C22.463,299.342,23.152,299.615,22.916,298.717Zm95.777-14.235c0.017,0.006.02,0,0,0l0.043-.032c-0.438-.18-0.753-0.307-0.981-0.4a1.6,1.6,0,0,0-.592-0.209h0a0.827,0.827,0,0,0,.484.846A1.459,1.459,0,0,0,118.693,284.482Zm0.169-88.925-0.6-1.089-0.605.121,0.484,1.331Zm-1.694,102.555a26.358,26.358,0,0,0-12.1-3.628S111.638,299.707,117.168,298.112Zm-3.993-80.665c0.592-.427,2.58-3.108.484-3.749-1.159-.642-19.116-4.475-19.116-4.475S99.419,215.066,113.175,217.447Zm-35.087-4.475,3.146,4.717,5.687,2.66s5.551,3.32,10.042,2.9C96.037,222.289,86.282,214.428,78.088,212.972Zm19.6,10.643,0.484,0.6,0.726-.242S99.418,223.706,97.688,223.615Zm15,37.853c-2.361-.332-6.154-0.821-6.049-0.725s3.933,4,8.348,3.991c0.234-.2.607-0.549,0.363-1.935C115.178,262.331,115.144,261.639,112.691,261.468Zm-1.331,20.318c-0.543-.6-3.313-4.066-9.8-4.112C101.56,277.674,106.923,282.11,111.36,281.786ZM107.731,249.5c-0.852-1.149-1.485-2.789-6.413-2.9C101.318,246.593,105.084,250.306,107.731,249.5ZM98.9,382.527a9.031,9.031,0,0,0-3.146-4.837S95.6,380.073,98.9,382.527Zm1.936-129.041c-1.78-1.3-6.764-5.127-9.558-6.168a26.633,26.633,0,0,1-4.6-3.628,6.7,6.7,0,0,0-6.171-1.814S88.958,254.377,100.834,253.486ZM87.525,270.3h0.363l0.6-.363-1.452-.242ZM84.863,376.964c-0.913-1.76-2.256-5.618-6.049-8.1A11.872,11.872,0,0,0,84.863,376.964Zm1.331-107.635c-0.651-.751-4.774-5-19-10.159C67.2,259.17,76.33,268.929,86.194,269.329ZM70.224,176.57a10.265,10.265,0,0,1-1.936-.6,6.846,6.846,0,0,0,6.05,3.023C74.017,178.434,73.542,177.23,70.224,176.57Zm4.6-7.015v-0.363l-0.363-.121-0.121.363Zm-5.808,24.551,0.847,0.725h0.847l-0.6-.967Zm2.057,1.088,0.847,0.847,0.605-.6Zm-2.783,36.161a16.429,16.429,0,0,0,3.993.725c-0.651-.5-2.832-3.227-6.534-3.386C65.747,228.694,65.7,230.153,68.288,231.355Zm-3.146-3.387-0.363.242,0.121,0.242h0.484Zm1.21-60.348-0.726.484,1.21,0.967A1.163,1.163,0,0,0,66.352,167.62Zm1.694-11.731c0.327,0.472-.2.987,6.9,2.177,7.029,1.167,13.551,1.814,13.551,1.814a133.5,133.5,0,0,0,14.035.726c2.659,0.021,2.662,0,2.662,0s-2.171-1.437-11.373-3.024c-5.357-.591-12.056-1.091-16.213-1.814s-6.709-1.52-8.469-1.451C69.135,154.317,67.117,154.63,68.046,155.889Zm11.373,15v0.362l0.484-.121Zm8.711,3.507V175l0.726-.241-0.121-.363h-0.6Zm-2.9-38.942c-2.962-.63-2.9-0.6-2.9-0.6s-5.716-1.637-9.679-1.33a3.189,3.189,0,0,0-1.21,2.66c0,0.258-.246,1.74,3.751,2.782,1.867,0.481,2.064.829,7.259,0.6,6.332-.368,6.291-0.363,6.291-0.363l11.01-.726,10.163-.725a100.331,100.331,0,0,0-13.793-2.056H93.333A32.541,32.541,0,0,1,85.226,135.451Zm6.9-23.341a5.418,5.418,0,0,0-2.541.846l5.566,0.484S94.6,112.233,92.123,112.11Zm3.993,1.572a14.868,14.868,0,0,0,2.42.967c3.262,0.542,3.751-.725,3.751-0.725ZM103.5,74.5a4.437,4.437,0,0,0,2.783,2.9,7.845,7.845,0,0,0,5.444,0Zm5.2,113.8c-3.619-1.114-18.753-5.322-18.753-5.322s-7.053-1.656-9.2-2.539c-1.855-.72-4.613-1.577-6.049-1.331,0,0,4.912,5.552,24.561,11.369,1.673,0.647,11.373,3.386,11.373,3.386s2.109,0.609,2.3-2.419C112.508,190.633,112.892,189.907,108.7,188.3Zm7.381-128.074c-3.5-.316-2.9,3.265-2.9,3.265C117.681,64.122,116.1,60.411,116.079,60.227Zm-4.235,221.8s1.069,2,4.84,1.572C116.238,283.129,115.412,281.75,111.844,282.028Zm5.2-48.617,0.484-.363-0.242-.363-0.484.121ZM119.225,118.4a1.247,1.247,0,0,0-1.21-.6,1.006,1.006,0,0,0-.726,1.209c0.3,1.313.818,0.89,1.089,0.847C119.383,119.868,119.229,118.669,119.225,118.4Zm-0.484,220.954v0.484l0.605-.242Zm244.522-76.191c2.786,0.837,3.226-.929,3.508-1.693a5.114,5.114,0,0,0-.605-3.023c-3.868.465-5.081,3.023-5.081,3.023A4.1,4.1,0,0,0,363.263,263.161Zm-4.961,7.257s0.012,0.059-.847-1.814c-2.419-6.587-4.127-6.67-5.2-7.378-1.11-.5-1.638.267-2.662,0.726-12.692,9.986-20.141,14.289-26.013,17.536-6.957,3.62-7.323,4.415-11.252,7.256-3.523,2.909-14.663,8.589-18.149,10.643-4.435,2.9-8.318,3.371-11.494,3.87-7.552.567-16.362,3.7-19.722,4.6-3.766,1.195-12.446,2.092-24.924,3.386-12.477,1.463-45.574,2.5-49.848,2.419-17.163.491-26.608-1.859-29.4-2.419-2.941-.414-2.783,1.572-2.783,1.572,2.235,2.553,7.693,2.579,13.067,2.9,9.419,1.068,18.632,2.056,18.632,2.056s0.051-.038,14.64,1.089c36.943,3.786,50.131,1.107,57.592-.121,38.756-6.122,84.335-33.309,89.291-36.282,7.6-3.99,8.442-6.859,9.195-8.1A1.364,1.364,0,0,0,358.3,270.418Zm-6.9,21.889c0.02-1.477,0-2.356-.484-2.056a14.584,14.584,0,0,0-4.114,1.331,35.61,35.61,0,0,0-6.775,3.87,63.013,63.013,0,0,1-11.374,7.619c-3.474,1.69-47.288,27-93.525,26.848a113,113,0,0,1-22.021-1.572,4.933,4.933,0,0,0-2.782,0c-1.237-.048-14.453.761-25.408-1.572-8.536-.883-15.618-1.682-21.658-2.3a73.195,73.195,0,0,1-15.487-3.507c-2.843-.881-4.31-1.642-11.01-1.814a2.087,2.087,0,0,0,1.573,1.209s4.151,0.378,4.356,2.419a24.846,24.846,0,0,0,.6,2.781l0.121,0.242a80.844,80.844,0,0,0,7.864,2.177c4.411,0.785,9.47,1.749,21.295,4.6,11.947,2.169,18.816,3.314,25.65,3.265,11.335,0.6,10.213.858,24.319,0.6,6.643-.284,19.239-1.188,29.037-3.386,9.644-1.675,21.822-4.22,30.611-6.168,7.278-2.38,24.838-8.988,27.344-9.675,3.154-1.119,12.837-5.189,17.786-6.652,5.226-2.264,20.412-9.907,21.052-10.4v-4.837S351.293,293.538,351.406,292.307ZM162.539,276.344c-0.427.629-.7,0.942-0.484,1.088a14.9,14.9,0,0,0,4.719,1.935,45.44,45.44,0,0,0,6.775.484c4.79,0,19.843.242,19.843,0.242a108.491,108.491,0,0,0,17.181-1.452c3.719-.7,8.59-1.814,8.59-1.814s1.386-.474,9.437-0.6c3.805-.434,9.8-1.331,9.8-1.331s16.055-2.846,19.6-3.144c3.728-.48,6.241-0.157,21.657-5.684,4.589-1.829,14.214-5.847,19-7.619a178.559,178.559,0,0,1,20.447-7.74,46.339,46.339,0,0,0,13.067-7.5,154.332,154.332,0,0,1,16.939-11.731,10.611,10.611,0,0,1,2.178-1.331s4.618-1.981,5.081-4.837a2.333,2.333,0,0,1-2.662-1.572c-0.728-1.872-.824-2.232-1.693-3.024-0.54.492-.968,0.968-0.968,0.968l-1.815,1.935a8.661,8.661,0,0,1-4.235,3.628,83.776,83.776,0,0,0-11.494,6.53c-3.9,3.056-7.44,5.827-9.074,7.378-1.276.889-2.5,1.848-3.872,0.362a3.552,3.552,0,0,1,.726-3.265c0.85-.893,2.856-2.089,3.025-4.233a70.3,70.3,0,0,0-14.035,3.507c-2.642.825-3.582,0.93-4.477,1.815-0.454.526-.847,0.967-0.847,0.967a7.868,7.868,0,0,1-5.928,3.507c-3.494.792-18.57,4.324-23.714,5.08-2.746.893-3.361,0.781-6.776,3.386a5.475,5.475,0,0,1-4.235,2.54c-2.791.34-16.575,2.056-16.575,2.056s-15.646,2.461-26.86,3.628c-11.214,1.1-31.7,3.023-31.7,3.023l-14.4,1.572a37.236,37.236,0,0,1-15.607,2.661c-3.168-.134-9.2-1.264-11.737-1.209-2.487-.168-13.328-0.8-13.55.846,0,0-1.461,5.3,2.661,5.563,1.863,0.506,4.6,1.089,4.6,1.089a96.547,96.547,0,0,0,10.526.484c4.782-.1,8.953.241,8.953,0.241S163.613,274.5,162.539,276.344Zm107.44-32.775c-8.282-1.518-10.4,2.9-10.4,2.9S265.287,245,269.979,243.569Zm-22.141,3.991a3.3,3.3,0,0,0-4.719.484Zm-97.156-1.935v-0.483H137.615v0.483h13.067Zm-16.455,38.821s-2.44,3.764.847,5.564h23.11S149.9,286.128,134.227,284.446Zm193.827,70.991c-0.087-.087-3.74-1.006-5.444,2.056C322.61,357.493,326.859,358.95,328.054,355.437Zm-2.177-10.763v-0.121l-0.847.846h0.121ZM133.018,366.08c0.085,1.037-.1,3.406,4.6,4.474a4.483,4.483,0,0,1,2.3,1.814c-0.663,0-4.921-.573-5.687.847,0,0-.749,1.24,3.63,3.749a141.306,141.306,0,0,0,46.461,18.5c9.47,1.718,16.447,3.335,21.173,2.9,4.081-.7,15.116-3.013,18.028-3.628a251.671,251.671,0,0,1,37.265-5.442c3.063-1.612,6.9-4.112,6.9-4.112s16.388-1.453,25.166-7.135c-2.395.082-16.96,2.417-20.689,0.483,0.869-.764,1.266-1.936,8.59-2.66,7.4-1.128,14.09-1.937,15.124-2.3,2.324-.523,6.194-1.457,12.583-6.894-0.8-.26-1.384-0.723-4.84-0.725-2.3-.278-4.69-0.691-5.2-1.572,1.085-.771,1.563-2.141,10.526-3.508,2.516-.843,3.477-0.848,4.719-2.539,1.461-1.746,9.874-9.775,10.889-12.7-0.253-.125-4.157.052-3.388-2.419,0.769-1.038,2.465-2.152,3.267-3.144,0.3-.759,1.206-2.094-0.605-2.3-1.169.111-2.937,0.668-3.025-1.209,0.014-.2-0.233-1.055,2.662-2.056,1.526-.847,22.5-12.215,22.5-12.215a1.966,1.966,0,0,0,.847-2.54c-0.345-.461-0.4-0.963-2.541-0.362-1.191.6-3.452,1.927-4.839,0.846a5.449,5.449,0,0,0-.726-0.363s-0.3-.621,1.572-2.418c0.815-.805,2.894-2.435,2.9-2.782a3.18,3.18,0,0,0,.726-1.935c-0.543.316-7.259,3.87-7.259,3.87s-3.026,1.316-7.26,2.661c-5.473,1.9-16.163,5.908-21.9,8.344-4.335,1.917-12.519,5.343-15.608,6.289-3.048,1.026-16.328,5.232-23.109,6.168-6.021,1.3-38.63,9.318-56.382,7.861-9.733-.137-27.991-0.573-41.5-3.749-8.321-1.668-20.734-4.984-32.305-3.87-3.421.335-4.108,0.678-4.718,1.088-0.227.208-.858,1.407-0.847,4.475a6.57,6.57,0,0,0,1.451,3.507c0.614,0.216,29.643,7.5,29.643,7.5s-3.942,1.2-12.462-.362c-7.7-1.453-11.271-2.414-18.269-2.9,0.1,0.385,1.283,2.81,6.049,5.079a13.077,13.077,0,0,1,5.082,4.475c-0.7-.1-10.526-2.056-10.526-2.056S132.768,361.82,133.018,366.08Zm0.968-60.348a20.792,20.792,0,0,0,9.921.121c-0.235-.288-4.108-3.028-10.889-3.871ZM253.04,34.1c-2.395-.181-8,0.208-12.1-2.419,0.956-.657,1.093-1.467,7.986-2.54a11.8,11.8,0,0,0,4.839-2.177c-5.031-.127-46.22.224-82.394,4.112,9.282-5.037,9.316-5.079,9.316-5.079s-18.512,1.265-41.742,15.843c-1.223,2.138-5.295,9.21-5.565,24.308l2.54,0.726a30.136,30.136,0,0,0,7.139.242c6.332-.053,37.372-0.471,59.406-6.531,14.278-3.265,32.474-6.58,42.226-10.159,5.332-1.686,12.98-3.54,21.294-14.15C257.976,35.4,255.189,35.087,253.04,34.1Zm25.166,12.215s-3.443-.085-5.444,0a16.683,16.683,0,0,0-3.025,1.935s-4.486,3.225-10.042,6.531c-13.018,7.075-29.009,9.374-52.994,15-27.979,7.379-69.207,6.772-69.207,6.772a4.475,4.475,0,0,0-3.388.847c-0.956.652-1.284,3.572-.967,6.289,0.774,3.43,1.814,3.144,1.814,3.144s0.568,0.041,1.694.242c2.094,0.455,11.736.484,11.736,0.484s-0.032.028,6.534-.484c9.366,0,31.618-1.625,43.677-2.782a184.323,184.323,0,0,0,34.483-7.256c4.234-1.492,10.276-2.884,14.64-4.112a73.571,73.571,0,0,0,18.995-10.038c11.754-7.285,16.157-10.938,16.818-11.61s0.452-2.213.484-2.661-0.241-.351-2.178-1.209A13.737,13.737,0,0,0,278.206,46.319Zm3.993-3.628c0.364,0.546,2.281.953,2.783,0.968a5.875,5.875,0,0,0,3.025-.6Zm14.882,14.271a3.694,3.694,0,0,0-3.751-1.451s-0.116.186-.968,1.209c-3.652,3.865-8.8,6.92-14.761,10.642a80.422,80.422,0,0,1-25.287,14.029l-10.4,3.023s-13.528,3.727-18.753,5.2c-4.652,1.555-7.238,1.968-14.4,3.023-18.558,3.35-47.247,3.833-53.236,3.87-4.44.1-9.912-.1-16.092-0.242-6.369-.71-5.96,1.437-6.17,1.935,0.01,3.594,2.419,3.628,2.419,3.628,1.637,1.162,7.5.726,7.5,0.726s25.534-.093,34.845-0.363c19.348,0.5,25.454-2.744,27.1-3.387,11.9-5.163,17.652-5.089,24.8-5.684a39.764,39.764,0,0,0,16.455-5.442c4.048-2.2,7.195-3.091,12.1-4.958,10.59-4.149,15.128-7.477,17.906-9.554a42.13,42.13,0,0,1,12.946-7.861c4.481-1.628,5.816-3.582,6.9-5.079A2.763,2.763,0,0,0,297.081,56.962Zm37.87,67.483c6.153-.983,12.157-5.8,12.462-6.288-2.929-.081-24.077,6.893-24.077,6.893C326.569,125.616,332.355,125.025,334.951,124.445Zm-3.267,8.95c0.069,0.365,1.412.6,2.057,0.725a3.546,3.546,0,0,0,2.783-1.088Zm5.445-.605s-0.017,0,1.21,0c3.44,0.027,3.541-1.487,3.508-1.572C337.89,130.836,337.129,132.79,337.129,132.79Zm7.017,5.321c2.624,0.228,3.142-1.4,3.146-1.572C344.421,136.461,344.146,138.111,344.146,138.111Zm1.089-8.1a2.667,2.667,0,0,0-2.783.847C344.574,131.79,345.143,130.3,345.235,130.008Zm-7.864,9.071c-2.684.9-5.128,0.976-9.317,1.33-7.832.792-11.978-3.87-11.978-3.87s0.026,0.005-6.533,1.33c-10.787,2.747-40.641,7.207-44.646,7.74-1.855.534-29.958,2.606-41.257,3.75a252.145,252.145,0,0,1-34.967,2.3c-5.864.056-16.576-.31-23.714-0.846-8.165-.9-25.408-1.21-25.408-1.21s-0.041.013,0,.121c4.354,1.295,17.615,2.791,24.2,3.749,13.04,1.8,18.27,4.354,18.27,4.354l5.081-.121s16.928-.242,22.868-0.242c5.6,0.076,18.39-.967,18.39-0.967s11.591-1.434,16.213-1.814a62.608,62.608,0,0,1,9.195.363s-0.047-.039,3.388,0c3.184,0.266,13.768-1.407,20.81-2.419,8.32-1.012,12.462,1.451,12.462,1.451S330.358,143.664,335.8,142.1c5.987-1.516,7.864-3.87,7.864-3.87A18.055,18.055,0,0,0,337.371,139.079Zm-197.336,5.079c2.642,0.263,5.62.5,10.526,0.847,7.164,0.658,26.289.244,31.1,0.121,19.432-.665,24.7-0.484,31.336-0.484,6.143,0.341,20.309-1.577,26.255-2.3,4.825-.44,16.18-1.614,25.892-2.781,7.105-.776,29.885-5.08,29.885-5.08s16.927-3.621,17.786-3.87c0.523-.151.038-0.745-0.121-0.846a15.813,15.813,0,0,1-3.63-1.21,3.178,3.178,0,0,1-1.573-2.3c6.518,0.086,12.624-3.575,15.124-4.839a56.964,56.964,0,0,1,7.5-3.265c-1.068-1.437-6.8.728-9.195,1.33-2.318.564-14.186,3.627-18.27,4.6-5.213,1.389-17.264,3.165-24.44,4.232a124.842,124.842,0,0,0-13.43,2.661c-1.177.271-8.057,2.484-11.131,3.265-6.5,1.394-20.689,2.54-20.689,2.54l-17.423,1.088s-12.5.484-18.269,0.484c-5.612-.159-6.92.474-8.954,1.089-5.1,2-17.785,2.418-17.785,2.418h-36.66C136.257,144.252,138.522,144.031,140.035,144.158Zm20.81-24.187L133.5,118.4l0.242,3.387Zm18.633-8.587c4.419-.15,12.161.158,18.633-2.419-1.152.161-12.964,2.558-24.32,1.452-9.172-.034-0.487-0.387-13.309.241C160.482,110.658,176.946,111.349,179.478,111.384Zm121.838-66.4a6.132,6.132,0,0,0,5.323.726A4.161,4.161,0,0,0,301.316,44.989Zm7.743,20.8c-2.42-2.906-5.082-2.782-5.082-2.782l-0.726.6s-4.016,3.078-9.679,7.256c-7.473,4.833-12.946,9.07-12.946,9.07s-0.881.688-4.356,3.628a66.645,66.645,0,0,1-8.469,3.991s0.059,0.031-7.017,3.023a118.616,118.616,0,0,0-15.124,6.531,27.187,27.187,0,0,1-4.235,1.814,43.281,43.281,0,0,1-10.526,2.056c-19.375,1.167-22.988,6.41-22.988,6.41,4.431,0.955,10.082-.655,11.01-0.847,0.813-.077,1.326-0.266,5.324-0.846,3.386,0.26,8.795-1.093,11.857-1.814,2.106-.263,12.583-4.112,12.583-4.112s13.655-5.323,17.422-6.531a18.558,18.558,0,0,0,4.6-1.572,4.338,4.338,0,0,0,1.089-.968c4.717-3.518,10.232-5.889,15.487-8.345a61.536,61.536,0,0,0,19.842-12.94c1.233-1.277,1.936-2.056,1.936-2.056V65.79Zm-98.607,50.432h6.533v-0.363h-6.412ZM324.3,78.126c-0.122-4.352-1.452-6.047-1.452-6.047s-0.051.013-2.42-.121c-4.585-.823-6.546,1.561-8.711,3.144-7.288,7.342-12.313,9.707-18.633,13.061a103.89,103.89,0,0,0-18.148,9.675c-3.16,2.3-6.05,2.919-9.8,4.112-3.7,1.045-4.129,1.317-8.711,3.628-11.28,5.756-26.244,7.557-29.28,7.861-3.113.226-3.508,1.572-3.508,1.572a125.556,125.556,0,0,0,15.244-.846c9.43-1.239,23.833-2.506,30.611-2.9a61.366,61.366,0,0,0,19.963-4.354c1.343-.6,11.56-4.118,15-5.321,3.647-1.447,4.275-3.045,4.6-3.749,0.261-.612,1.084-0.889,3.146-1.935,9.35-2.178,10.889-5.926,10.889-5.926a13.9,13.9,0,0,1,.242-2.056A52,52,0,0,0,324.3,78.126Zm7.5,5.805-0.121.363,0.484-.242Zm-7.138,17.536c-1.368,1.051-3.121,2.515-4.961,2.661a13.631,13.631,0,0,1-3.388-.605,4.184,4.184,0,0,0-2.9.847,58.144,58.144,0,0,1-8.712,3.144c-2.639.9-4.96,1.935-4.96,1.935a9.773,9.773,0,0,0-3.146,1.935c-1.184.675-1.674,1.863-15.608,4.233-10.489,2-17.017,4.332-41.984,5.563-10.29-.093-10.284-0.121-10.284-0.121H218.679s-2.477,3.32-14.156,5.079c-2.1.2-12.068,0.464-14.64,0.847a51.646,51.646,0,0,0-11.494,2.3c-5.323,1.032-15.186,2.792-19.116,2.177a0.93,0.93,0,0,1-.121.363s33.867,4.191,76.466-1.815c21.805-3.024,44.881-7.062,56.018-9.8,10.115-2.307,17.395-3.013,19-5.684,0.237-2.074.242-3.144,0.242-3.144s-0.313-.779,1.573-1.693a101.341,101.341,0,0,1,9.679-4.112,43.312,43.312,0,0,0,5.928-3.023s4.725-1.744,5.2-5.08C331.416,97.717,330.142,97.4,324.667,101.467Zm9.316,5.442a1.968,1.968,0,0,0,2.783.242s0.535-.216,1.331-0.484a1.783,1.783,0,0,0,1.936-1.814A5.094,5.094,0,0,0,333.983,106.909Zm12.462-6.53s0.208,1.67,1.452,1.935a1.722,1.722,0,0,0,1.331-.6C349.18,101.471,348.866,100.108,346.445,100.379Zm-0.726,46.8c-7,1.873-18.379,5.607-21.052,5.926-3.658.864-16.4,3.326-22.747,4.353s-6.291.968-6.291,0.968a37.36,37.36,0,0,1-7.38,1.209c-2.624.09-21.053,1.331-21.053,1.331s-10.659,1.008-17.906.967c-5.536,0-5.566.121-5.566,0.121s-17.431,1.438-20.689,1.33c-5.3.293-21.9,1.37-24.8,0.968-3.593,0-9.68-.121-9.68-0.121s-16.193-1.09-17.543-.968a17.978,17.978,0,0,0-5.687.605,50.073,50.073,0,0,1-9.316.847,70.768,70.768,0,0,1-12.1-1.089,22.326,22.326,0,0,0-5.445.363c0.007,0.35-.221,1.888,4.356,3.144,0.8,0.3,2.339.977,2.541,2.54-0.237.2-1.182,1.5-7.26,0.726-2.382-.094-3.7-0.4-4.718.121,0,0,1.3,2.914,7.985,2.9,3.006,0.469,19.71,3.411,24.8,4.233,7.281,0.662,16.243,1.613,25.408.363a255.142,255.142,0,0,1,30.611-.484c12.487-.446,42.823-2.74,51.905-4.233,11.375-1.493,40.531-5.805,40.531-5.805a23.351,23.351,0,0,1,5.929-.121c0.685,0.116,2.075.507,4.235-2.781,0.986-1.1,1.018-1.965,4.6-1.814,3.689-.651,14.539-2.286,25.166-7.861,2.975-2.443,6.185-5.538,7.623-8.708C357.708,145.959,353.809,145.381,345.719,147.182ZM144.875,190.236c-4.392-.135-5.273.285-6.413,0.846,6.121,4.616,12.056,4.894,19.359,5.2,10.908,0.556,11.024,1.145,13.067,1.693,2.893-2.456,9.713-1.656,16.212-1.452a113.557,113.557,0,0,0,24.682-2.418,126.973,126.973,0,0,1,21.658-1.814s-0.01.024,3.75-.121c3.811,0.155,7.306-.756,11.374-1.693,8.924-1.789,17.815-2.767,24.924-3.508a179.807,179.807,0,0,0,22.262-4.112,50.418,50.418,0,0,0,15.124-6.53c-2.625-.972-8.656.413-16.455,1.451-16.669,3-28.773,3.322-43.315,3.265-31.912.435-36.783,1.425-46.823,2.3a179.217,179.217,0,0,1-47.912-.967c-7.588-1.132-21.416-1.21-21.416-1.21,2.1,3.2,5.8,4.2,8.591,4.838,8.2,1.188,9.578,2.616,10.405,3.144C152.472,190.527,148.415,190.32,144.875,190.236Zm114.7,2.177a27.05,27.05,0,0,0,13.551-.121A28.124,28.124,0,0,0,259.574,192.413Zm27.223-2.419a26.531,26.531,0,0,1-15.487,5.442,113.176,113.176,0,0,1-13.551.726c-3.564.2-14.5,0.36-20.931,1.935a7.572,7.572,0,0,1-.968.242,5.924,5.924,0,0,1-3.146-.363c-2.37-.4-4.185-1.155-14.156-0.363-6.831.957-10.526,1.451-10.526,1.451a3.145,3.145,0,0,0-1.936,1.814,4.473,4.473,0,0,1-1.573,1.089,1.368,1.368,0,0,1-.6.242H187.463s-22.907.6-53.477-4.959l0.483,1.451s19.872,7.05,33.636,8.345c9.908,1.571,16.315,3.009,23.109.363,5.307-.169,6.413-0.121,6.413-0.121s16.952-.372,40.531-3.265c22.7-2.894,45.543-6.173,57.834-9.434,1.88-.4,3.381-0.576,5.082-2.056,1.645-.763,4.6-3.068,16.454-5.563,6.842-1.724,10.769-2.3,15.608-6.168-0.559-.621-1.106-1.4-3.146-0.846a99.672,99.672,0,0,1-9.8,2.781C316.163,183.87,297.42,189.9,286.8,189.994Zm46.7-9.192a1.878,1.878,0,0,0,1.936,1.089,19.2,19.2,0,0,0,3.146-.968c2.587-.939,6.2-2.488,7.5-3.144a84.191,84.191,0,0,1,11.01-4.6c1.726-.313,3.142-0.768,3.267-0.725s1.427-.613,1.331-2.782a3.718,3.718,0,0,0-3.751-2.781c-1.834.273-2.926,0.363-7.622,2.66a28.508,28.508,0,0,0-2.42,1.814l-1.815,1.452-1.452,1.209s-4.2,2.873-5.444,3.507C337.665,178.294,333.5,180.8,333.5,180.8Zm22.867,2.056a43.277,43.277,0,0,0-7.743,2.782c-2.514,1.15-16.732,7.265-28.312,10.038-9.36,2.167-23.835,5.244-37.507,7.256-10.766,1.891-25.329,5.4-41.258,6.289a19.134,19.134,0,0,1-13.914,5.8c-5,.489-22.02,1.693-22.02,1.693s-7.629.6-13.793,1.693c-5.518.936-9.345,1.805-18.149,1.331a100.1,100.1,0,0,1-19.116-1.694c-7.731-.637-14.034-1.3-18.875-1.33a4.218,4.218,0,0,0-1.935.726s-1.836,3.958.725,5.684c1.653,0.785,10.388,4.867,19.964,1.935,0.628,0.363,4,3.475,21.536,5.321,13.5,1.409,26.59,3.136,35.45.726,7.28-1.906,16.693-5.382,26.739-3.749a37.629,37.629,0,0,1,4.114,1.088s3.556-2.486,17.544-4.837c8.1-1.512,15.833-2.912,22.625-5.322,7.168-2.088,10.036-3.265,22.141-5.2a146.049,146.049,0,0,0,31.821-10.4c6.531-2.758,11.746-4.324,12.1-6.772,0.635-1.682.527-3.877,4.6-5.08,3.949-1.484,8.223-2.515,9.921-6.651C362.538,183.361,362.546,181.831,356.366,182.858Zm-189.229,55.39v0.363h2.178v-0.363h-2.178ZM364.231,164.6l0.121,0.6,0.484-.6h-0.605Zm3.508,30.718c-0.75-2.684-1.744-2.745-2.177-2.782-2.489.7-1.879,1.578-1.452,2.3,1.344,1.6.93,1.811,0.726,2.419-3.361,5.12-11.355,7.094-16.213,8.829a152.772,152.772,0,0,0-21.415,10.884c-5.394,3.376-5.836,3.079-6.655,3.023-2.323-.019-1.989-0.42-2.178-0.846-0.593-2.407-2.343-2.068-2.662-1.935-4.428,1.344-5.662,1.664-7.985,2.177-12.744,1.723-16.923,3.244-25.408,5.563-19.773,6.277-22.3,6-31.337,7.377a224.8,224.8,0,0,1-36.66,3.87c-13.142.309-14.046,0.692-18.874,1.21-5.763.951-11.865,2.708-15.85,3.749-4.341,1.351-9.069,1.932-14.519,2.9,0.5,0.26,3.008.672,7.139,0.726s10.744,0.124,14.4.6c-4.116,2.256-11.113,2.76-15.607,3.145-11.688.03-15.85,5.079-15.85,5.079,1.82-.4,4.111-0.354,10.163-0.363,6.585-.186,16.9.941,23.472,1.573s17.665-.726,17.665-0.726,0.011,0,12.946-1.451c21.282-1.59,22.92-4.336,22.988-4.6-6.08.319-8.725-.787-9.8-1.088,4.522-3.36,13.914-4.233,13.914-4.233s-0.019.014,1.573,1.088a4.151,4.151,0,0,0,5.444-1.088l2.541-.726a24.91,24.91,0,0,1-2.541-.967c2.68-2.507,4.957-.8,7.26,0a3.893,3.893,0,0,0,3.75-.121l8.712-3.024s35.379-12.186,37.87-12.94c1.114-.222.617-0.222,2.783,1.814,7.893-1.6,17.682-5.054,26.134-8.466,11.47-3.589,15.25-6.512,16.212-7.377a45.98,45.98,0,0,0,11.01-10.763C368.59,198.345,368.013,196.862,367.739,195.315Zm0.968,38.458c-0.392-1.243-.9-3.313-2.9-3.991a3.482,3.482,0,0,1-.847.484,56.7,56.7,0,0,1-5.2,3.024,86.847,86.847,0,0,1-18.27,11c-3.759,1.983-11.14,5.476-17.543,8.828-7.709,3.913-25.045,12.82-25.045,12.82s-15.856,8.591-23.109,10.642c-3.785,1.381-12.125,4.1-17.786,4.233-4.5.653-10.368,2.167-15.85,3.387-5.482,1.145-17.938,3.484-25.529,4.353-7.106,1.131-9.679,1.693-9.679,1.693a37.9,37.9,0,0,1-6.171.847,29.061,29.061,0,0,0-3.387-.121,110.273,110.273,0,0,0-15.366,1.089c-8.136,1.218-8.273,2.222-30.006,2.781,0,0,17.4,8.557,34.6,5.805a78.905,78.905,0,0,1,13.551.968c2.769-.025,3.3.3,7.139,0.121,4.381,0.024,36.839-.182,55.293-4.838,8.382-2.2,12.952-3.052,18.027-3.507,2.094-.456,4.65.146,16.7-6.894,7.023-3.67,29.263-15.686,33.877-18.5,5.011-2.818,18.579-10.508,19.48-12.094-0.49-2.43-1.331-5.926-1.331-5.926s1.067-.824,4.355,2.056c0.856,0.7,2.288,2.189,4.477-.121,1.593-1.218,9.195-8.828,9.195-8.828l-0.363-5.443h3.146S369.1,235.017,368.707,233.773ZM307.486,126.259v0l-0.121,0h0.121Z"/>
</svg>
